<svg width="27" height="27" viewBox="0 0 27 27" fill="none" xmlns="http://www.w3.org/2000/svg">
<path d="M6.51533 17.4905H8.91533M20.9153 17.4905V21.0905C20.9153 23.3537 20.9153 24.4841 20.3525 25.1873C19.8161 25.8593 18.9665 25.8893 17.3153 25.8905M20.9249 6.6905H20.9129M8.91533 25.8905H6.51533C4.25213 25.8905 3.12173 25.8905 2.41853 25.1873C1.71533 24.4841 1.71533 23.3537 1.71533 21.0905V18.6905C1.71533 16.4273 1.71533 15.2969 2.41853 14.5937C3.12173 13.8905 4.25213 13.8905 6.51533 13.8905H8.91533C11.1785 13.8905 12.3089 13.8905 13.0121 14.5937C13.7153 15.2969 13.7153 16.4273 13.7153 18.6905V21.0905C13.7153 23.3537 13.7153 24.4841 13.0121 25.1873C12.3089 25.8905 11.1785 25.8905 8.91533 25.8905ZM20.9153 1.8905C18.2633 1.8905 16.1153 4.0613 16.1153 6.7385C16.1153 8.2697 16.7153 9.4601 17.9153 10.5233C18.7613 11.2733 19.7861 12.5189 20.4005 13.5269C20.6957 14.0117 21.1133 14.0117 21.4301 13.5269C22.0757 12.5381 23.0693 11.2733 23.9153 10.5245C25.1153 9.4601 25.7153 8.2697 25.7153 6.7385C25.7153 4.0625 23.5673 1.8905 20.9153 1.8905Z" stroke="#4B5563" stroke-width="2" stroke-linecap="round" stroke-linejoin="round"/>
</svg>
